<svg width="151" height="151" viewBox="0 0 151 151" fill="none" xmlns="http://www.w3.org/2000/svg">
<path fill-rule="evenodd" clip-rule="evenodd" d="M126.051 63.1354C126.051 75.0903 121.902 86.076 114.964 94.7305H114.993C114.993 94.7305 97.4239 118.241 83.8135 134.889C79.4713 140.2 71.5286 140.198 67.189 134.885C53.622 118.274 36.0755 94.7815 36.0755 94.7815L36.0346 94.7305C29.0968 86.076 24.947 75.0903 24.947 63.1354C24.947 35.2162 47.58 12.5833 75.4992 12.5833C103.418 12.5833 126.051 35.2162 126.051 63.1354ZM94.375 62.9166C94.375 73.341 85.9244 81.7916 75.5 81.7916C65.0756 81.7916 56.625 73.341 56.625 62.9166C56.625 52.4922 65.0756 44.0416 75.5 44.0416C85.9244 44.0416 94.375 52.4922 94.375 62.9166Z" fill="#595959"/>
</svg>
