<svg width="38" height="34" viewBox="0 0 38 34" fill="none" xmlns="http://www.w3.org/2000/svg">
<path fill-rule="evenodd" clip-rule="evenodd" d="M13.9515 2.87036C16.1806 -0.956785 21.8193 -0.956786 24.0485 2.87035L37.2292 25.4997C39.4368 29.2898 36.6393 34 32.1807 34H5.81932C1.36069 34 -1.43677 29.2899 0.770815 25.4997L13.9515 2.87036ZM18.9999 20.7343C20.0696 20.7343 20.9368 19.8858 20.9368 18.8391V9.36364C20.9368 8.317 20.0696 7.46854 18.9999 7.46854C17.9302 7.46854 17.063 8.317 17.063 9.36364V18.8391C17.063 19.8858 17.9302 20.7343 18.9999 20.7343ZM18.9999 28.3147C20.0696 28.3147 20.9368 27.4662 20.9368 26.4196C20.9368 25.3729 20.0696 24.5245 18.9999 24.5245C17.9302 24.5245 17.063 25.3729 17.063 26.4196C17.063 27.4662 17.9302 28.3147 18.9999 28.3147Z" fill="white"/>
</svg>
