<svg width="143" height="100" viewBox="0 0 143 100" fill="none" xmlns="http://www.w3.org/2000/svg">
<path d="M118.826 2.80273C117.459 5.99284 116.206 9.41081 115.066 13.0566C114.155 16.4746 113.585 19.8926 113.357 23.3105C113.357 26.5007 113.927 29.4629 115.066 32.1973C116.206 34.7038 118.257 36.7546 121.219 38.3496C127.143 41.5397 132.156 45.6413 136.258 50.6543C140.587 55.4395 142.752 61.3639 142.752 68.4277C142.752 72.7572 141.954 76.8587 140.359 80.7324C138.764 84.6061 136.486 88.0241 133.523 90.9863C130.789 93.7207 127.485 95.8854 123.611 97.4805C119.738 99.0755 115.636 99.873 111.307 99.873C102.648 99.873 95.3561 96.7969 89.4316 90.6445C83.5072 84.4922 80.3171 77.0866 79.8613 68.4277C79.1777 59.3132 80.3171 50.8822 83.2793 43.1348C86.4694 35.1595 90.1152 28.2096 94.2168 22.2852C98.5462 16.3607 102.762 11.5755 106.863 7.92969C110.965 4.05599 113.813 1.54948 115.408 0.410156C115.864 0.638021 116.434 0.979818 117.117 1.43555L118.143 2.46094C118.37 2.6888 118.598 2.80273 118.826 2.80273ZM40.2129 2.80273C38.8457 5.99284 37.5924 9.41081 36.4531 13.0566C35.5417 16.4746 34.972 19.8926 34.7441 23.3105C34.7441 26.5007 35.3138 29.4629 36.4531 32.1973C37.5924 34.7038 39.6432 36.7546 42.6055 38.3496C48.5299 41.5397 53.543 45.6413 57.6445 50.6543C61.974 55.4395 64.1387 61.3639 64.1387 68.4277C64.1387 72.7572 63.3411 76.8587 61.7461 80.7324C60.151 84.6061 57.8724 88.0241 54.9102 90.9863C52.1758 93.7207 48.8717 95.8854 44.998 97.4805C41.1243 99.0755 37.0228 99.873 32.6934 99.873C24.0345 99.873 16.7428 96.7969 10.8184 90.6445C4.89388 84.4922 1.70378 77.0866 1.24805 68.4277C0.564453 59.3132 1.70378 50.8822 4.66602 43.1348C7.85612 35.1595 11.502 28.2096 15.6035 22.2852C19.9329 16.3607 24.1484 11.5755 28.25 7.92969C32.3516 4.05599 35.1999 1.54948 36.7949 0.410156C37.2507 0.638021 37.8203 0.979818 38.5039 1.43555L39.5293 2.46094C39.7572 2.6888 39.985 2.80273 40.2129 2.80273Z" fill="white" fill-opacity="0.5"/>
</svg>
