<svg width="71" height="66" viewBox="0 0 71 66" fill="none" xmlns="http://www.w3.org/2000/svg">
<path d="M17.84 0.439999V1.32C17.36 1.32 16.96 1.45333 16.64 1.72C16.3733 1.93333 16.1867 2.17333 16.08 2.44C15.92 2.76 15.84 3.13333 15.84 3.56V55.72C15.7333 57.64 15.2533 59.3467 14.4 60.84C13.7067 62.0667 12.5333 63.2133 10.88 64.28C9.28 65.3467 6.98667 65.88 4 65.88C2.82667 65.88 1.62667 65.72 0.4 65.4L0.8 64.28C1.44 64.44 2.05333 64.52 2.64 64.52C3.92 64.52 4.93333 64.2267 5.68 63.64C6.48 63.0533 7.06667 62.36 7.44 61.56C7.86667 60.8133 8.13333 60.04 8.24 59.24C8.34667 58.44 8.4 57.8267 8.4 57.4V3.56C8.4 3.56 8.37333 3.45333 8.32 3.24C8.32 2.97333 8.24 2.70666 8.08 2.44C7.97333 2.12 7.76 1.85333 7.44 1.64C7.17333 1.42666 6.8 1.32 6.32 1.32V0.439999H17.84ZM70.4819 48.92L69.6819 56.52H31.5219V55.72C32.0552 55.72 32.4552 55.6133 32.7219 55.4C33.0419 55.1333 33.2552 54.84 33.3619 54.52C33.5219 54.2 33.6019 53.8267 33.6019 53.4V3.64C33.6019 3.21333 33.5219 2.81333 33.3619 2.44C33.2552 2.17333 33.0419 1.93333 32.7219 1.72C32.4552 1.45333 32.0552 1.32 31.5219 1.32V0.519998H43.0419V1.32C42.5619 1.32 42.1619 1.45333 41.8419 1.72C41.5752 1.93333 41.3885 2.17333 41.2819 2.44C41.1219 2.81333 41.0419 3.21333 41.0419 3.64V55.32H62.9619C65.0952 55.32 66.6419 54.7067 67.6019 53.48C68.6152 52.2 69.2819 50.68 69.6019 48.92H70.4819Z" fill="black"/>
</svg>
